<svg width="420" height="77" viewBox="0 0 420 77" fill="none" xmlns="http://www.w3.org/2000/svg">
<g clip-path="url(#clip0_10_2671)">
<g filter="url(#filter0_d_10_2671)">
<path d="M55.6289 41.7578C55.6289 43.1172 55.6289 44.5469 55.6289 46.0469C55.6289 47.5469 55.4648 48.9766 55.1367 50.3359C54.9023 51.3672 54.6445 52.2812 54.3633 53.0781C54.082 53.8281 53.7305 54.5312 53.3086 55.1875C52.8867 55.7969 52.3711 56.3828 51.7617 56.9453C51.1523 57.4609 50.4023 57.9766 49.5117 58.4922C49.2305 58.6797 48.4805 58.9375 47.2617 59.2656C46.043 59.5469 44.5195 59.8984 42.6914 60.3203C40.9102 60.7422 38.8945 61.1875 36.6445 61.6562C34.4414 62.125 32.168 62.5938 29.8242 63.0625C27.5273 63.4844 25.2305 63.9297 22.9336 64.3984C20.6836 64.8203 18.6211 65.2188 16.7461 65.5938C14.918 65.9219 13.3477 66.2266 12.0352 66.5078C10.7695 66.7422 9.92578 66.8828 9.50391 66.9297C8.70703 58.3516 7.95703 49.8438 7.25391 41.4062C6.55078 32.9688 6.01172 24.4375 5.63672 15.8125C9.57422 15.9531 13.4883 16.1172 17.3789 16.3047C21.2695 16.4453 25.207 16.6562 29.1914 16.9375C30.2227 17.0313 31.7227 17.1484 33.6914 17.2891C35.707 17.4297 37.793 17.6406 39.9492 17.9219C42.1055 18.1563 44.1211 18.4609 45.9961 18.8359C47.918 19.2109 49.3008 19.6797 50.1445 20.2422C51.2227 21.0391 52.1836 22.1172 53.0273 23.4766C53.8711 24.8359 54.4805 26.1719 54.8555 27.4844C55.043 28.0937 55.1836 29.0547 55.2773 30.3672C55.3711 31.6328 55.4414 32.9922 55.4883 34.4453C55.5352 35.8984 55.5586 37.3047 55.5586 38.6641C55.6055 40.0234 55.6289 41.0547 55.6289 41.7578ZM38.1211 42.6719C38.1211 42.1562 38.0977 41.6172 38.0508 41.0547C38.0508 40.4453 38.0273 39.8828 37.9805 39.3672C37.8867 38.6172 37.7461 37.8438 37.5586 37.0469C37.418 36.2031 37.207 35.4062 36.9258 34.6562C36.6445 33.8594 36.293 33.1328 35.8711 32.4766C35.4492 31.7734 34.9336 31.1641 34.3242 30.6484C33.9961 30.3672 33.1992 30.1562 31.9336 30.0156C30.668 29.8281 29.2852 29.7109 27.7852 29.6641C26.2852 29.5703 24.8789 29.5234 23.5664 29.5234C22.2539 29.4766 21.4102 29.4531 21.0352 29.4531H18.1523C18.5273 33.1094 18.8555 36.7188 19.1367 40.2812C19.4648 43.7969 19.7461 47.3828 19.9805 51.0391C20.8711 50.9922 22.1367 50.875 23.7773 50.6875C25.4648 50.4531 27.1758 50.1719 28.9102 49.8438C30.6445 49.4688 32.2617 49.0234 33.7617 48.5078C35.2617 47.9453 36.3398 47.2891 36.9961 46.5391C37.5117 45.9766 37.8164 45.3906 37.9102 44.7812C38.0508 44.125 38.1211 43.4219 38.1211 42.6719ZM104.637 37.3281V38.9453L91.0664 39.5781C91.207 38.9688 91.2773 38.2656 91.2773 37.4688C91.2773 36.2969 91.1133 35.5469 90.7852 35.2188C90.457 34.8438 89.7305 34.6562 88.6055 34.6562C87.0117 34.6562 85.2539 34.9375 83.332 35.5C81.4102 36.0625 79.7227 36.6016 78.2695 37.1172C78.0352 39.1797 77.8477 41.2422 77.707 43.3047C77.5664 45.3672 77.4961 47.4297 77.4961 49.4922C77.4961 51.7891 77.4961 54.0859 77.4961 56.3828C77.543 58.6328 77.5898 60.9062 77.6367 63.2031L65.543 63.9766C65.3086 60.9766 65.0742 58 64.8398 55.0469C64.6055 52.0469 64.3945 49.0469 64.207 46.0469C63.9727 42.0625 63.668 38.1016 63.293 34.1641C62.918 30.1797 62.543 26.1719 62.168 22.1406C64.8398 22.3281 67.4883 22.6094 70.1133 22.9844C72.7852 23.3125 75.457 23.7344 78.1289 24.25L77.7773 30.1562C79.1836 29.0312 80.5195 28.0703 81.7852 27.2734C83.0977 26.4297 84.4102 25.7266 85.7227 25.1641C87.082 24.6016 88.5117 24.2031 90.0117 23.9688C91.5117 23.6875 93.1758 23.5469 95.0039 23.5469C96.2227 23.5469 97.4883 23.6875 98.8008 23.9688C100.113 24.2031 101.238 24.7891 102.176 25.7266C102.645 26.2422 103.043 27.0156 103.371 28.0469C103.699 29.0781 103.957 30.1797 104.145 31.3516C104.332 32.4766 104.449 33.6016 104.496 34.7266C104.59 35.8047 104.637 36.6719 104.637 37.3281ZM120.527 19.9609C120.527 20.8984 120.316 21.7891 119.895 22.6328C119.52 23.4297 118.98 24.1328 118.277 24.7422C117.621 25.3516 116.871 25.8437 116.027 26.2188C115.184 26.5469 114.34 26.7109 113.496 26.7109C112.559 26.7109 111.668 26.5 110.824 26.0781C110.027 25.6562 109.324 25.1172 108.715 24.4609C108.105 23.8047 107.637 23.0547 107.309 22.2109C106.98 21.3203 106.816 20.4297 106.816 19.5391C106.816 18.6484 106.98 17.8281 107.309 17.0781C107.684 16.2812 108.152 15.6016 108.715 15.0391C109.324 14.4766 110.004 14.0312 110.754 13.7031C111.551 13.375 112.395 13.2109 113.285 13.2109C114.176 13.2109 115.043 13.3984 115.887 13.7734C116.777 14.1016 117.551 14.5937 118.207 15.25C118.91 15.8594 119.473 16.5859 119.895 17.4297C120.316 18.2266 120.527 19.0703 120.527 19.9609ZM123.41 31.9141C123.176 34.3984 122.988 36.8594 122.848 39.2969C122.707 41.7344 122.566 44.1719 122.426 46.6094C122.238 49.4688 121.91 52.3047 121.441 55.1172C121.02 57.9297 120.527 60.7422 119.965 63.5547L109.207 64.6797C109.207 63.1797 109.207 61.7031 109.207 60.25C109.254 58.7969 109.277 57.3203 109.277 55.8203C109.277 51.9766 109.207 48.1328 109.066 44.2891C108.926 40.4453 108.785 36.6016 108.645 32.7578C111.129 32.6641 113.566 32.5234 115.957 32.3359C118.395 32.1484 120.879 32.0078 123.41 31.9141ZM146.332 12.9297C145.957 17.4766 145.582 22 145.207 26.5C144.879 31 144.598 35.5234 144.363 40.0703C144.129 44.1953 143.871 48.2969 143.59 52.375C143.355 56.4062 143.121 60.4844 142.887 64.6094L132.129 65.1719C132.129 60.9062 132.129 56.6875 132.129 52.5156C132.176 48.2969 132.152 44.0547 132.059 39.7891C131.965 35.5234 131.777 31.3047 131.496 27.1328C131.215 22.9141 130.934 18.6719 130.652 14.4062L146.332 12.9297ZM167.777 12.9297C167.402 17.4766 167.027 22 166.652 26.5C166.324 31 166.043 35.5234 165.809 40.0703C165.574 44.1953 165.316 48.2969 165.035 52.375C164.801 56.4062 164.566 60.4844 164.332 64.6094L153.574 65.1719C153.574 60.9062 153.574 56.6875 153.574 52.5156C153.621 48.2969 153.598 44.0547 153.504 39.7891C153.41 35.5234 153.223 31.3047 152.941 27.1328C152.66 22.9141 152.379 18.6719 152.098 14.4062L167.777 12.9297ZM255.035 41.7578C255.035 43.1172 255.035 44.5469 255.035 46.0469C255.035 47.5469 254.871 48.9766 254.543 50.3359C254.309 51.3672 254.051 52.2812 253.77 53.0781C253.488 53.8281 253.137 54.5312 252.715 55.1875C252.293 55.7969 251.777 56.3828 251.168 56.9453C250.559 57.4609 249.809 57.9766 248.918 58.4922C248.637 58.6797 247.887 58.9375 246.668 59.2656C245.449 59.5469 243.926 59.8984 242.098 60.3203C240.316 60.7422 238.301 61.1875 236.051 61.6562C233.848 62.125 231.574 62.5938 229.23 63.0625C226.934 63.4844 224.637 63.9297 222.34 64.3984C220.09 64.8203 218.027 65.2188 216.152 65.5938C214.324 65.9219 212.754 66.2266 211.441 66.5078C210.176 66.7422 209.332 66.8828 208.91 66.9297C208.113 58.3516 207.363 49.8438 206.66 41.4062C205.957 32.9688 205.418 24.4375 205.043 15.8125C208.98 15.9531 212.895 16.1172 216.785 16.3047C220.676 16.4453 224.613 16.6562 228.598 16.9375C229.629 17.0313 231.129 17.1484 233.098 17.2891C235.113 17.4297 237.199 17.6406 239.355 17.9219C241.512 18.1563 243.527 18.4609 245.402 18.8359C247.324 19.2109 248.707 19.6797 249.551 20.2422C250.629 21.0391 251.59 22.1172 252.434 23.4766C253.277 24.8359 253.887 26.1719 254.262 27.4844C254.449 28.0937 254.59 29.0547 254.684 30.3672C254.777 31.6328 254.848 32.9922 254.895 34.4453C254.941 35.8984 254.965 37.3047 254.965 38.6641C255.012 40.0234 255.035 41.0547 255.035 41.7578ZM237.527 42.6719C237.527 42.1562 237.504 41.6172 237.457 41.0547C237.457 40.4453 237.434 39.8828 237.387 39.3672C237.293 38.6172 237.152 37.8438 236.965 37.0469C236.824 36.2031 236.613 35.4062 236.332 34.6562C236.051 33.8594 235.699 33.1328 235.277 32.4766C234.855 31.7734 234.34 31.1641 233.73 30.6484C233.402 30.3672 232.605 30.1562 231.34 30.0156C230.074 29.8281 228.691 29.7109 227.191 29.6641C225.691 29.5703 224.285 29.5234 222.973 29.5234C221.66 29.4766 220.816 29.4531 220.441 29.4531H217.559C217.934 33.1094 218.262 36.7188 218.543 40.2812C218.871 43.7969 219.152 47.3828 219.387 51.0391C220.277 50.9922 221.543 50.875 223.184 50.6875C224.871 50.4531 226.582 50.1719 228.316 49.8438C230.051 49.4688 231.668 49.0234 233.168 48.5078C234.668 47.9453 235.746 47.2891 236.402 46.5391C236.918 45.9766 237.223 45.3906 237.316 44.7812C237.457 44.125 237.527 43.4219 237.527 42.6719ZM304.043 37.3281V38.9453L290.473 39.5781C290.613 38.9688 290.684 38.2656 290.684 37.4688C290.684 36.2969 290.52 35.5469 290.191 35.2188C289.863 34.8438 289.137 34.6562 288.012 34.6562C286.418 34.6562 284.66 34.9375 282.738 35.5C280.816 36.0625 279.129 36.6016 277.676 37.1172C277.441 39.1797 277.254 41.2422 277.113 43.3047C276.973 45.3672 276.902 47.4297 276.902 49.4922C276.902 51.7891 276.902 54.0859 276.902 56.3828C276.949 58.6328 276.996 60.9062 277.043 63.2031L264.949 63.9766C264.715 60.9766 264.48 58 264.246 55.0469C264.012 52.0469 263.801 49.0469 263.613 46.0469C263.379 42.0625 263.074 38.1016 262.699 34.1641C262.324 30.1797 261.949 26.1719 261.574 22.1406C264.246 22.3281 266.895 22.6094 269.52 22.9844C272.191 23.3125 274.863 23.7344 277.535 24.25L277.184 30.1562C278.59 29.0312 279.926 28.0703 281.191 27.2734C282.504 26.4297 283.816 25.7266 285.129 25.1641C286.488 24.6016 287.918 24.2031 289.418 23.9688C290.918 23.6875 292.582 23.5469 294.41 23.5469C295.629 23.5469 296.895 23.6875 298.207 23.9688C299.52 24.2031 300.645 24.7891 301.582 25.7266C302.051 26.2422 302.449 27.0156 302.777 28.0469C303.105 29.0781 303.363 30.1797 303.551 31.3516C303.738 32.4766 303.855 33.6016 303.902 34.7266C303.996 35.8047 304.043 36.6719 304.043 37.3281ZM359.52 39.1562C359.52 39.5312 359.52 39.9062 359.52 40.2812C359.52 40.6094 359.496 40.9609 359.449 41.3359C359.402 41.9922 359.285 43.0703 359.098 44.5703C358.91 46.0703 358.652 47.6406 358.324 49.2812C357.996 50.875 357.598 52.3516 357.129 53.7109C356.66 55.0703 356.145 55.9375 355.582 56.3125C355.301 56.5 354.34 56.6641 352.699 56.8047C351.105 56.9453 349.137 57.0859 346.793 57.2266C344.496 57.3672 341.988 57.4844 339.27 57.5781C336.551 57.6719 333.949 57.7656 331.465 57.8594C329.027 57.9062 326.871 57.9531 324.996 58C323.168 58.0469 321.949 58.0703 321.34 58.0703C321.059 58.0703 320.566 58.0703 319.863 58.0703C319.207 58.0703 318.504 58.0703 317.754 58.0703C317.004 58.0234 316.301 57.9766 315.645 57.9297C314.988 57.8828 314.52 57.8125 314.238 57.7188C313.582 57.4844 312.926 57.1094 312.27 56.5938C311.613 56.0312 311.004 55.4219 310.441 54.7656C309.879 54.0625 309.363 53.3594 308.895 52.6562C308.473 51.9062 308.168 51.2031 307.98 50.5469C307.84 50.0312 307.723 49.2578 307.629 48.2266C307.535 47.1484 307.465 46.0469 307.418 44.9219C307.371 43.75 307.324 42.625 307.277 41.5469C307.277 40.4688 307.277 39.6484 307.277 39.0859C307.277 38.1953 307.301 36.9766 307.348 35.4297C307.395 33.8359 307.535 32.2188 307.77 30.5781C308.004 28.9375 308.332 27.4141 308.754 26.0078C309.223 24.5547 309.879 23.5469 310.723 22.9844C311.098 22.75 311.801 22.5391 312.832 22.3516C313.863 22.1641 315.082 22 316.488 21.8594C317.895 21.7188 319.395 21.625 320.988 21.5781C322.582 21.4844 324.129 21.4375 325.629 21.4375C327.176 21.3906 328.605 21.3672 329.918 21.3672C331.23 21.3672 332.285 21.3906 333.082 21.4375C333.785 21.4844 334.793 21.5313 336.105 21.5781C337.418 21.5781 338.871 21.6016 340.465 21.6484C342.105 21.6953 343.793 21.7891 345.527 21.9297C347.262 22.0234 348.879 22.1641 350.379 22.3516C351.879 22.5391 353.191 22.7969 354.316 23.125C355.488 23.4062 356.262 23.7578 356.637 24.1797C357.246 24.8359 357.738 25.8203 358.113 27.1328C358.488 28.4453 358.77 29.8516 358.957 31.3516C359.191 32.8047 359.332 34.2578 359.379 35.7109C359.473 37.1172 359.52 38.2656 359.52 39.1562ZM344.613 40.6328C344.613 40.0703 344.59 39.4141 344.543 38.6641C344.496 37.9141 344.426 37.1641 344.332 36.4141C344.238 35.6172 344.098 34.8672 343.91 34.1641C343.723 33.4141 343.488 32.8047 343.207 32.3359C342.832 31.7266 342.105 31.2578 341.027 30.9297C339.949 30.6016 338.754 30.3672 337.441 30.2266C336.176 30.0391 334.91 29.9219 333.645 29.875C332.426 29.8281 331.512 29.8047 330.902 29.8047C330.574 29.8047 329.988 29.8281 329.145 29.875C328.301 29.875 327.41 29.8984 326.473 29.9453C325.582 29.9922 324.738 30.0859 323.941 30.2266C323.145 30.3203 322.629 30.4375 322.395 30.5781C321.973 30.8594 321.645 31.3047 321.41 31.9141C321.176 32.4766 320.988 33.1094 320.848 33.8125C320.754 34.5156 320.684 35.2188 320.637 35.9219C320.637 36.5781 320.637 37.1172 320.637 37.5391C320.637 37.9609 320.66 38.7344 320.707 39.8594C320.801 40.9375 320.895 42.1094 320.988 43.375C321.129 44.5938 321.293 45.7188 321.48 46.75C321.668 47.7812 321.902 48.4375 322.184 48.7188C322.512 49.0938 323.121 49.3984 324.012 49.6328C324.949 49.8672 325.934 50.0781 326.965 50.2656C328.043 50.4062 329.074 50.5234 330.059 50.6172C331.043 50.6641 331.746 50.6875 332.168 50.6875C332.918 50.6875 333.809 50.6641 334.84 50.6172C335.871 50.5703 336.902 50.4531 337.934 50.2656C339.012 50.0781 340.02 49.8203 340.957 49.4922C341.895 49.1641 342.645 48.7188 343.207 48.1562C343.535 47.8281 343.793 47.3359 343.98 46.6797C344.168 46.0234 344.309 45.3203 344.402 44.5703C344.496 43.8203 344.543 43.0938 344.543 42.3906C344.59 41.6406 344.613 41.0547 344.613 40.6328ZM416.543 43.0234C416.543 43.6797 416.52 44.4062 416.473 45.2031C416.473 45.9531 416.402 46.7266 416.262 47.5234C416.168 48.3203 416.004 49.0938 415.77 49.8438C415.582 50.5469 415.301 51.1797 414.926 51.7422C414.129 52.9141 413.379 53.9219 412.676 54.7656C411.973 55.5625 411.199 56.2422 410.355 56.8047C409.559 57.3203 408.645 57.7422 407.613 58.0703C406.582 58.3984 405.363 58.6562 403.957 58.8438C401.848 59.1719 399.762 59.4766 397.699 59.7578C395.637 59.9922 393.551 60.1094 391.441 60.1094C390.504 60.1094 389.543 60.0625 388.559 59.9688C387.574 59.875 386.66 59.5703 385.816 59.0547C385.348 58.8203 384.832 58.5156 384.27 58.1406C383.754 57.7188 383.238 57.2969 382.723 56.875C382.207 56.4062 381.691 55.9609 381.176 55.5391C380.707 55.0703 380.285 54.6719 379.91 54.3438L379.488 71.9922C378.176 72.0859 376.863 72.1094 375.551 72.0625C374.238 72.0625 372.902 72.0625 371.543 72.0625C370.746 72.0625 369.973 72.0625 369.223 72.0625C368.52 72.1094 367.77 72.1562 366.973 72.2031C367.16 68.1719 367.324 64.1641 367.465 60.1797C367.652 56.1484 367.746 52.1406 367.746 48.1562V47.3125C367.746 42.8594 367.629 38.4297 367.395 34.0234C367.16 29.6172 366.949 25.1875 366.762 20.7344C369.105 20.5469 371.426 20.3828 373.723 20.2422C376.02 20.1016 378.34 19.9375 380.684 19.75L381.176 23.4766C384.41 23.1016 387.645 22.7969 390.879 22.5625C394.16 22.2812 397.441 22.1406 400.723 22.1406C401.145 22.1406 401.59 22.1406 402.059 22.1406C402.574 22.0938 403.043 22.1172 403.465 22.2109C404.59 22.4453 405.738 22.75 406.91 23.125C408.082 23.4531 409.184 23.8984 410.215 24.4609C411.246 25.0234 412.16 25.75 412.957 26.6406C413.754 27.4844 414.363 28.5156 414.785 29.7344C415.066 30.6719 415.324 31.7031 415.559 32.8281C415.793 33.9531 415.98 35.125 416.121 36.3438C416.262 37.5156 416.355 38.6875 416.402 39.8594C416.496 40.9844 416.543 42.0391 416.543 43.0234ZM402.691 41.7578C402.691 41.1953 402.645 40.5859 402.551 39.9297C402.457 39.2734 402.223 38.7344 401.848 38.3125C400.91 37.2344 399.738 36.4141 398.332 35.8516C396.926 35.2422 395.543 34.9375 394.184 34.9375C393.059 34.9375 391.84 35.0547 390.527 35.2891C389.215 35.4766 387.902 35.7578 386.59 36.1328C385.277 36.4609 383.988 36.8594 382.723 37.3281C381.457 37.75 380.309 38.1719 379.277 38.5938L379.91 48.0156C381.645 48.5312 383.496 49 385.465 49.4219C387.48 49.8438 389.379 50.0547 391.16 50.0547C391.629 50.0547 392.355 50.0781 393.34 50.125C394.324 50.125 395.332 50.1016 396.363 50.0547C397.441 49.9609 398.426 49.8438 399.316 49.7031C400.254 49.5625 400.863 49.3047 401.145 48.9297C401.379 48.6484 401.59 48.2031 401.777 47.5938C401.965 46.9375 402.129 46.2578 402.27 45.5547C402.41 44.8047 402.504 44.1016 402.551 43.4453C402.645 42.7422 402.691 42.1797 402.691 41.7578Z" fill="#FB8619"/>
</g>
</g>
<defs>
<filter id="filter0_d_10_2671" x="5.63672" y="12.9297" width="410.906" height="63.2734" filterUnits="userSpaceOnUse" color-interpolation-filters="sRGB">
<feFlood flood-opacity="0" result="BackgroundImageFix"/>
<feColorMatrix in="SourceAlpha" type="matrix" values="0 0 0 0 0 0 0 0 0 0 0 0 0 0 0 0 0 0 127 0" result="hardAlpha"/>
<feOffset dy="4"/>
<feComposite in2="hardAlpha" operator="out"/>
<feColorMatrix type="matrix" values="0 0 0 0 0.137255 0 0 0 0 0.14902 0 0 0 0 0.0941176 0 0 0 1 0"/>
<feBlend mode="normal" in2="BackgroundImageFix" result="effect1_dropShadow_10_2671"/>
<feBlend mode="normal" in="SourceGraphic" in2="effect1_dropShadow_10_2671" result="shape"/>
</filter>
<clipPath id="clip0_10_2671">
<rect width="420" height="77" fill="white"/>
</clipPath>
</defs>
</svg>
