<svg width="411" height="64" viewBox="0 0 411 64" fill="none" xmlns="http://www.w3.org/2000/svg">
<g filter="url(#filter0_d_10_2650)">
<path d="M49.9922 28.8281C49.9922 30.1875 49.9922 31.6172 49.9922 33.1172C49.9922 34.6172 49.8281 36.0469 49.5 37.4062C49.2656 38.4375 49.0078 39.3516 48.7266 40.1484C48.4453 40.8984 48.0938 41.6016 47.6719 42.2578C47.25 42.8672 46.7344 43.4531 46.125 44.0156C45.5156 44.5312 44.7656 45.0469 43.875 45.5625C43.5938 45.75 42.8438 46.0078 41.625 46.3359C40.4062 46.6172 38.8828 46.9688 37.0547 47.3906C35.2734 47.8125 33.2578 48.2578 31.0078 48.7266C28.8047 49.1953 26.5312 49.6641 24.1875 50.1328C21.8906 50.5547 19.5938 51 17.2969 51.4688C15.0469 51.8906 12.9844 52.2891 11.1094 52.6641C9.28125 52.9922 7.71094 53.2969 6.39844 53.5781C5.13281 53.8125 4.28906 53.9531 3.86719 54C3.07031 45.4219 2.32031 36.9141 1.61719 28.4766C0.914062 20.0391 0.375 11.5078 0 2.88281C3.9375 3.02344 7.85156 3.1875 11.7422 3.375C15.6328 3.51562 19.5703 3.72656 23.5547 4.00781C24.5859 4.10156 26.0859 4.21875 28.0547 4.35938C30.0703 4.5 32.1562 4.71094 34.3125 4.99219C36.4688 5.22656 38.4844 5.53125 40.3594 5.90625C42.2812 6.28125 43.6641 6.75 44.5078 7.3125C45.5859 8.10938 46.5469 9.1875 47.3906 10.5469C48.2344 11.9063 48.8438 13.2422 49.2188 14.5547C49.4062 15.1641 49.5469 16.125 49.6406 17.4375C49.7344 18.7031 49.8047 20.0625 49.8516 21.5156C49.8984 22.9688 49.9219 24.375 49.9219 25.7344C49.9688 27.0938 49.9922 28.125 49.9922 28.8281ZM32.4844 29.7422C32.4844 29.2266 32.4609 28.6875 32.4141 28.125C32.4141 27.5156 32.3906 26.9531 32.3438 26.4375C32.25 25.6875 32.1094 24.9141 31.9219 24.1172C31.7812 23.2734 31.5703 22.4766 31.2891 21.7266C31.0078 20.9297 30.6562 20.2031 30.2344 19.5469C29.8125 18.8438 29.2969 18.2344 28.6875 17.7188C28.3594 17.4375 27.5625 17.2266 26.2969 17.0859C25.0312 16.8984 23.6484 16.7812 22.1484 16.7344C20.6484 16.6406 19.2422 16.5938 17.9297 16.5938C16.6172 16.5469 15.7734 16.5234 15.3984 16.5234H12.5156C12.8906 20.1797 13.2188 23.7891 13.5 27.3516C13.8281 30.8672 14.1094 34.4531 14.3438 38.1094C15.2344 38.0625 16.5 37.9453 18.1406 37.7578C19.8281 37.5234 21.5391 37.2422 23.2734 36.9141C25.0078 36.5391 26.625 36.0938 28.125 35.5781C29.625 35.0156 30.7031 34.3594 31.3594 33.6094C31.875 33.0469 32.1797 32.4609 32.2734 31.8516C32.4141 31.1953 32.4844 30.4922 32.4844 29.7422ZM99 24.3984V26.0156L85.4297 26.6484C85.5703 26.0391 85.6406 25.3359 85.6406 24.5391C85.6406 23.3672 85.4766 22.6172 85.1484 22.2891C84.8203 21.9141 84.0938 21.7266 82.9688 21.7266C81.375 21.7266 79.6172 22.0078 77.6953 22.5703C75.7734 23.1328 74.0859 23.6719 72.6328 24.1875C72.3984 26.25 72.2109 28.3125 72.0703 30.375C71.9297 32.4375 71.8594 34.5 71.8594 36.5625C71.8594 38.8594 71.8594 41.1562 71.8594 43.4531C71.9062 45.7031 71.9531 47.9766 72 50.2734L59.9062 51.0469C59.6719 48.0469 59.4375 45.0703 59.2031 42.1172C58.9688 39.1172 58.7578 36.1172 58.5703 33.1172C58.3359 29.1328 58.0312 25.1719 57.6562 21.2344C57.2812 17.25 56.9062 13.2422 56.5312 9.21094C59.2031 9.39844 61.8516 9.67969 64.4766 10.0547C67.1484 10.3828 69.8203 10.8047 72.4922 11.3203L72.1406 17.2266C73.5469 16.1016 74.8828 15.1406 76.1484 14.3438C77.4609 13.5 78.7734 12.7969 80.0859 12.2344C81.4453 11.6719 82.875 11.2734 84.375 11.0391C85.875 10.7578 87.5391 10.6172 89.3672 10.6172C90.5859 10.6172 91.8516 10.7578 93.1641 11.0391C94.4766 11.2734 95.6016 11.8594 96.5391 12.7969C97.0078 13.3125 97.4062 14.0859 97.7344 15.1172C98.0625 16.1484 98.3203 17.25 98.5078 18.4219C98.6953 19.5469 98.8125 20.6719 98.8594 21.7969C98.9531 22.875 99 23.7422 99 24.3984ZM114.891 7.03125C114.891 7.96875 114.68 8.85938 114.258 9.70312C113.883 10.5 113.344 11.2031 112.641 11.8125C111.984 12.4219 111.234 12.9141 110.391 13.2891C109.547 13.6172 108.703 13.7812 107.859 13.7812C106.922 13.7812 106.031 13.5703 105.188 13.1484C104.391 12.7266 103.688 12.1875 103.078 11.5312C102.469 10.875 102 10.125 101.672 9.28125C101.344 8.39063 101.18 7.5 101.18 6.60938C101.18 5.71875 101.344 4.89844 101.672 4.14844C102.047 3.35156 102.516 2.67188 103.078 2.10938C103.688 1.54688 104.367 1.10156 105.117 0.773438C105.914 0.445313 106.758 0.28125 107.648 0.28125C108.539 0.28125 109.406 0.46875 110.25 0.84375C111.141 1.17187 111.914 1.66406 112.57 2.32031C113.273 2.92969 113.836 3.65625 114.258 4.5C114.68 5.29688 114.891 6.14063 114.891 7.03125ZM117.773 18.9844C117.539 21.4688 117.352 23.9297 117.211 26.3672C117.07 28.8047 116.93 31.2422 116.789 33.6797C116.602 36.5391 116.273 39.375 115.805 42.1875C115.383 45 114.891 47.8125 114.328 50.625L103.57 51.75C103.57 50.25 103.57 48.7734 103.57 47.3203C103.617 45.8672 103.641 44.3906 103.641 42.8906C103.641 39.0469 103.57 35.2031 103.43 31.3594C103.289 27.5156 103.148 23.6719 103.008 19.8281C105.492 19.7344 107.93 19.5938 110.32 19.4062C112.758 19.2188 115.242 19.0781 117.773 18.9844ZM140.695 0C140.32 4.54687 139.945 9.07031 139.57 13.5703C139.242 18.0703 138.961 22.5938 138.727 27.1406C138.492 31.2656 138.234 35.3672 137.953 39.4453C137.719 43.4766 137.484 47.5547 137.25 51.6797L126.492 52.2422C126.492 47.9766 126.492 43.7578 126.492 39.5859C126.539 35.3672 126.516 31.125 126.422 26.8594C126.328 22.5938 126.141 18.375 125.859 14.2031C125.578 9.98438 125.297 5.74219 125.016 1.47656L140.695 0ZM162.141 0C161.766 4.54687 161.391 9.07031 161.016 13.5703C160.688 18.0703 160.406 22.5938 160.172 27.1406C159.938 31.2656 159.68 35.3672 159.398 39.4453C159.164 43.4766 158.93 47.5547 158.695 51.6797L147.938 52.2422C147.938 47.9766 147.938 43.7578 147.938 39.5859C147.984 35.3672 147.961 31.125 147.867 26.8594C147.773 22.5938 147.586 18.375 147.305 14.2031C147.023 9.98438 146.742 5.74219 146.461 1.47656L162.141 0ZM249.398 28.8281C249.398 30.1875 249.398 31.6172 249.398 33.1172C249.398 34.6172 249.234 36.0469 248.906 37.4062C248.672 38.4375 248.414 39.3516 248.133 40.1484C247.852 40.8984 247.5 41.6016 247.078 42.2578C246.656 42.8672 246.141 43.4531 245.531 44.0156C244.922 44.5312 244.172 45.0469 243.281 45.5625C243 45.75 242.25 46.0078 241.031 46.3359C239.812 46.6172 238.289 46.9688 236.461 47.3906C234.68 47.8125 232.664 48.2578 230.414 48.7266C228.211 49.1953 225.938 49.6641 223.594 50.1328C221.297 50.5547 219 51 216.703 51.4688C214.453 51.8906 212.391 52.2891 210.516 52.6641C208.688 52.9922 207.117 53.2969 205.805 53.5781C204.539 53.8125 203.695 53.9531 203.273 54C202.477 45.4219 201.727 36.9141 201.023 28.4766C200.32 20.0391 199.781 11.5078 199.406 2.88281C203.344 3.02344 207.258 3.1875 211.148 3.375C215.039 3.51562 218.977 3.72656 222.961 4.00781C223.992 4.10156 225.492 4.21875 227.461 4.35938C229.477 4.5 231.562 4.71094 233.719 4.99219C235.875 5.22656 237.891 5.53125 239.766 5.90625C241.688 6.28125 243.07 6.75 243.914 7.3125C244.992 8.10938 245.953 9.1875 246.797 10.5469C247.641 11.9063 248.25 13.2422 248.625 14.5547C248.812 15.1641 248.953 16.125 249.047 17.4375C249.141 18.7031 249.211 20.0625 249.258 21.5156C249.305 22.9688 249.328 24.375 249.328 25.7344C249.375 27.0938 249.398 28.125 249.398 28.8281ZM231.891 29.7422C231.891 29.2266 231.867 28.6875 231.82 28.125C231.82 27.5156 231.797 26.9531 231.75 26.4375C231.656 25.6875 231.516 24.9141 231.328 24.1172C231.188 23.2734 230.977 22.4766 230.695 21.7266C230.414 20.9297 230.062 20.2031 229.641 19.5469C229.219 18.8438 228.703 18.2344 228.094 17.7188C227.766 17.4375 226.969 17.2266 225.703 17.0859C224.438 16.8984 223.055 16.7812 221.555 16.7344C220.055 16.6406 218.648 16.5938 217.336 16.5938C216.023 16.5469 215.18 16.5234 214.805 16.5234H211.922C212.297 20.1797 212.625 23.7891 212.906 27.3516C213.234 30.8672 213.516 34.4531 213.75 38.1094C214.641 38.0625 215.906 37.9453 217.547 37.7578C219.234 37.5234 220.945 37.2422 222.68 36.9141C224.414 36.5391 226.031 36.0938 227.531 35.5781C229.031 35.0156 230.109 34.3594 230.766 33.6094C231.281 33.0469 231.586 32.4609 231.68 31.8516C231.82 31.1953 231.891 30.4922 231.891 29.7422ZM298.406 24.3984V26.0156L284.836 26.6484C284.977 26.0391 285.047 25.3359 285.047 24.5391C285.047 23.3672 284.883 22.6172 284.555 22.2891C284.227 21.9141 283.5 21.7266 282.375 21.7266C280.781 21.7266 279.023 22.0078 277.102 22.5703C275.18 23.1328 273.492 23.6719 272.039 24.1875C271.805 26.25 271.617 28.3125 271.477 30.375C271.336 32.4375 271.266 34.5 271.266 36.5625C271.266 38.8594 271.266 41.1562 271.266 43.4531C271.312 45.7031 271.359 47.9766 271.406 50.2734L259.312 51.0469C259.078 48.0469 258.844 45.0703 258.609 42.1172C258.375 39.1172 258.164 36.1172 257.977 33.1172C257.742 29.1328 257.438 25.1719 257.062 21.2344C256.688 17.25 256.312 13.2422 255.938 9.21094C258.609 9.39844 261.258 9.67969 263.883 10.0547C266.555 10.3828 269.227 10.8047 271.898 11.3203L271.547 17.2266C272.953 16.1016 274.289 15.1406 275.555 14.3438C276.867 13.5 278.18 12.7969 279.492 12.2344C280.852 11.6719 282.281 11.2734 283.781 11.0391C285.281 10.7578 286.945 10.6172 288.773 10.6172C289.992 10.6172 291.258 10.7578 292.57 11.0391C293.883 11.2734 295.008 11.8594 295.945 12.7969C296.414 13.3125 296.812 14.0859 297.141 15.1172C297.469 16.1484 297.727 17.25 297.914 18.4219C298.102 19.5469 298.219 20.6719 298.266 21.7969C298.359 22.875 298.406 23.7422 298.406 24.3984ZM353.883 26.2266C353.883 26.6016 353.883 26.9766 353.883 27.3516C353.883 27.6797 353.859 28.0312 353.812 28.4062C353.766 29.0625 353.648 30.1406 353.461 31.6406C353.273 33.1406 353.016 34.7109 352.688 36.3516C352.359 37.9453 351.961 39.4219 351.492 40.7812C351.023 42.1406 350.508 43.0078 349.945 43.3828C349.664 43.5703 348.703 43.7344 347.062 43.875C345.469 44.0156 343.5 44.1562 341.156 44.2969C338.859 44.4375 336.352 44.5547 333.633 44.6484C330.914 44.7422 328.312 44.8359 325.828 44.9297C323.391 44.9766 321.234 45.0234 319.359 45.0703C317.531 45.1172 316.312 45.1406 315.703 45.1406C315.422 45.1406 314.93 45.1406 314.227 45.1406C313.57 45.1406 312.867 45.1406 312.117 45.1406C311.367 45.0938 310.664 45.0469 310.008 45C309.352 44.9531 308.883 44.8828 308.602 44.7891C307.945 44.5547 307.289 44.1797 306.633 43.6641C305.977 43.1016 305.367 42.4922 304.805 41.8359C304.242 41.1328 303.727 40.4297 303.258 39.7266C302.836 38.9766 302.531 38.2734 302.344 37.6172C302.203 37.1016 302.086 36.3281 301.992 35.2969C301.898 34.2188 301.828 33.1172 301.781 31.9922C301.734 30.8203 301.688 29.6953 301.641 28.6172C301.641 27.5391 301.641 26.7188 301.641 26.1562C301.641 25.2656 301.664 24.0469 301.711 22.5C301.758 20.9062 301.898 19.2891 302.133 17.6484C302.367 16.0078 302.695 14.4844 303.117 13.0781C303.586 11.625 304.242 10.6172 305.086 10.0547C305.461 9.82031 306.164 9.60937 307.195 9.42188C308.227 9.23438 309.445 9.07031 310.852 8.92969C312.258 8.78906 313.758 8.69531 315.352 8.64844C316.945 8.55469 318.492 8.50781 319.992 8.50781C321.539 8.46094 322.969 8.4375 324.281 8.4375C325.594 8.4375 326.648 8.46094 327.445 8.50781C328.148 8.55469 329.156 8.60156 330.469 8.64844C331.781 8.64844 333.234 8.67188 334.828 8.71875C336.469 8.76562 338.156 8.85938 339.891 9C341.625 9.09375 343.242 9.23438 344.742 9.42188C346.242 9.60937 347.555 9.86719 348.68 10.1953C349.852 10.4766 350.625 10.8281 351 11.25C351.609 11.9063 352.102 12.8906 352.477 14.2031C352.852 15.5156 353.133 16.9219 353.32 18.4219C353.555 19.875 353.695 21.3281 353.742 22.7812C353.836 24.1875 353.883 25.3359 353.883 26.2266ZM338.977 27.7031C338.977 27.1406 338.953 26.4844 338.906 25.7344C338.859 24.9844 338.789 24.2344 338.695 23.4844C338.602 22.6875 338.461 21.9375 338.273 21.2344C338.086 20.4844 337.852 19.875 337.57 19.4062C337.195 18.7969 336.469 18.3281 335.391 18C334.312 17.6719 333.117 17.4375 331.805 17.2969C330.539 17.1094 329.273 16.9922 328.008 16.9453C326.789 16.8984 325.875 16.875 325.266 16.875C324.938 16.875 324.352 16.8984 323.508 16.9453C322.664 16.9453 321.773 16.9688 320.836 17.0156C319.945 17.0625 319.102 17.1562 318.305 17.2969C317.508 17.3906 316.992 17.5078 316.758 17.6484C316.336 17.9297 316.008 18.375 315.773 18.9844C315.539 19.5469 315.352 20.1797 315.211 20.8828C315.117 21.5859 315.047 22.2891 315 22.9922C315 23.6484 315 24.1875 315 24.6094C315 25.0312 315.023 25.8047 315.07 26.9297C315.164 28.0078 315.258 29.1797 315.352 30.4453C315.492 31.6641 315.656 32.7891 315.844 33.8203C316.031 34.8516 316.266 35.5078 316.547 35.7891C316.875 36.1641 317.484 36.4688 318.375 36.7031C319.312 36.9375 320.297 37.1484 321.328 37.3359C322.406 37.4766 323.438 37.5938 324.422 37.6875C325.406 37.7344 326.109 37.7578 326.531 37.7578C327.281 37.7578 328.172 37.7344 329.203 37.6875C330.234 37.6406 331.266 37.5234 332.297 37.3359C333.375 37.1484 334.383 36.8906 335.32 36.5625C336.258 36.2344 337.008 35.7891 337.57 35.2266C337.898 34.8984 338.156 34.4062 338.344 33.75C338.531 33.0938 338.672 32.3906 338.766 31.6406C338.859 30.8906 338.906 30.1641 338.906 29.4609C338.953 28.7109 338.977 28.125 338.977 27.7031ZM410.906 30.0938C410.906 30.75 410.883 31.4766 410.836 32.2734C410.836 33.0234 410.766 33.7969 410.625 34.5938C410.531 35.3906 410.367 36.1641 410.133 36.9141C409.945 37.6172 409.664 38.25 409.289 38.8125C408.492 39.9844 407.742 40.9922 407.039 41.8359C406.336 42.6328 405.562 43.3125 404.719 43.875C403.922 44.3906 403.008 44.8125 401.977 45.1406C400.945 45.4688 399.727 45.7266 398.32 45.9141C396.211 46.2422 394.125 46.5469 392.062 46.8281C390 47.0625 387.914 47.1797 385.805 47.1797C384.867 47.1797 383.906 47.1328 382.922 47.0391C381.938 46.9453 381.023 46.6406 380.18 46.125C379.711 45.8906 379.195 45.5859 378.633 45.2109C378.117 44.7891 377.602 44.3672 377.086 43.9453C376.57 43.4766 376.055 43.0312 375.539 42.6094C375.07 42.1406 374.648 41.7422 374.273 41.4141L373.852 59.0625C372.539 59.1562 371.227 59.1797 369.914 59.1328C368.602 59.1328 367.266 59.1328 365.906 59.1328C365.109 59.1328 364.336 59.1328 363.586 59.1328C362.883 59.1797 362.133 59.2266 361.336 59.2734C361.523 55.2422 361.688 51.2344 361.828 47.25C362.016 43.2188 362.109 39.2109 362.109 35.2266V34.3828C362.109 29.9297 361.992 25.5 361.758 21.0938C361.523 16.6875 361.312 12.2578 361.125 7.80469C363.469 7.61719 365.789 7.45312 368.086 7.3125C370.383 7.17188 372.703 7.00781 375.047 6.82031L375.539 10.5469C378.773 10.1719 382.008 9.86719 385.242 9.63281C388.523 9.35156 391.805 9.21094 395.086 9.21094C395.508 9.21094 395.953 9.21094 396.422 9.21094C396.938 9.16406 397.406 9.1875 397.828 9.28125C398.953 9.51563 400.102 9.82031 401.273 10.1953C402.445 10.5234 403.547 10.9688 404.578 11.5312C405.609 12.0938 406.523 12.8203 407.32 13.7109C408.117 14.5547 408.727 15.5859 409.148 16.8047C409.43 17.7422 409.688 18.7734 409.922 19.8984C410.156 21.0234 410.344 22.1953 410.484 23.4141C410.625 24.5859 410.719 25.7578 410.766 26.9297C410.859 28.0547 410.906 29.1094 410.906 30.0938ZM397.055 28.8281C397.055 28.2656 397.008 27.6562 396.914 27C396.82 26.3438 396.586 25.8047 396.211 25.3828C395.273 24.3047 394.102 23.4844 392.695 22.9219C391.289 22.3125 389.906 22.0078 388.547 22.0078C387.422 22.0078 386.203 22.125 384.891 22.3594C383.578 22.5469 382.266 22.8281 380.953 23.2031C379.641 23.5312 378.352 23.9297 377.086 24.3984C375.82 24.8203 374.672 25.2422 373.641 25.6641L374.273 35.0859C376.008 35.6016 377.859 36.0703 379.828 36.4922C381.844 36.9141 383.742 37.125 385.523 37.125C385.992 37.125 386.719 37.1484 387.703 37.1953C388.688 37.1953 389.695 37.1719 390.727 37.125C391.805 37.0312 392.789 36.9141 393.68 36.7734C394.617 36.6328 395.227 36.375 395.508 36C395.742 35.7188 395.953 35.2734 396.141 34.6641C396.328 34.0078 396.492 33.3281 396.633 32.625C396.773 31.875 396.867 31.1719 396.914 30.5156C397.008 29.8125 397.055 29.25 397.055 28.8281Z" fill="white"/>
</g>
<defs>
<filter id="filter0_d_10_2650" x="0" y="0" width="410.906" height="63.2734" filterUnits="userSpaceOnUse" color-interpolation-filters="sRGB">
<feFlood flood-opacity="0" result="BackgroundImageFix"/>
<feColorMatrix in="SourceAlpha" type="matrix" values="0 0 0 0 0 0 0 0 0 0 0 0 0 0 0 0 0 0 127 0" result="hardAlpha"/>
<feOffset dy="4"/>
<feComposite in2="hardAlpha" operator="out"/>
<feColorMatrix type="matrix" values="0 0 0 0 0.137255 0 0 0 0 0.14902 0 0 0 0 0.0941176 0 0 0 1 0"/>
<feBlend mode="normal" in2="BackgroundImageFix" result="effect1_dropShadow_10_2650"/>
<feBlend mode="normal" in="SourceGraphic" in2="effect1_dropShadow_10_2650" result="shape"/>
</filter>
</defs>
</svg>
