<svg width="1024" height="1024" viewBox="0 0 1024 1024" fill="none" xmlns="http://www.w3.org/2000/svg">
<g clip-path="url(#clip0_1_1092)">
<rect width="1024" height="1024" fill="url(#paint0_linear_1_1092)"/>
<g clip-path="url(#clip1_1_1092)">
<path d="M1211.35 462.308C1163.76 421.068 1099.94 394.559 1036.31 394.547C966.868 394.538 947.987 413.132 937.966 479.695C925.824 560.269 946.453 630.747 850.242 661.095C790.915 679.804 661.535 700.78 601.471 689.834C562.596 682.733 552.323 655.314 525.118 634.245C484.871 603.039 426.801 589.022 378.817 609.176C395.925 506.423 379.804 394.085 337.061 299.361C357.298 302.244 381.053 294.75 397.031 281.977C420.728 263.033 425.936 230.952 444.95 209.419C474.353 176.122 537.216 154.316 580.288 147.214C790.355 112.585 1011.47 91.8279 1182.11 241.306C1270.2 318.469 1363.9 464.799 1354.17 585.932C1352.75 603.597 1343.12 628.022 1327.18 637.203C1296.61 572.722 1266.25 509.871 1211.37 462.324L1211.35 462.308ZM577.718 269.591C572.75 267.422 565.058 266.878 559.74 268.003C507.333 278.974 508.226 419.614 565.122 418.921C586.517 418.659 598.566 399.813 603.957 381.302C610.986 357.166 606.964 302.424 591.558 282.27C589.019 278.947 581.121 271.089 577.738 269.608L577.718 269.591ZM742.911 249.18C721.968 255.994 710.407 301.58 710.996 321.284C711.861 350.594 731.356 416.325 771.689 393.012C803.244 374.776 797.872 320.295 792.182 290.105C787.522 265.373 772.197 239.656 742.929 249.178L742.911 249.18ZM610.897 484.657C605.736 481.405 595.765 482.365 592.61 488.067C583.276 504.865 621.232 529.355 634.166 535.201C676.378 554.29 724.949 543.726 755.82 509.401C763.25 501.128 790.75 464.603 772.053 458.036C753.357 451.47 752.014 473.651 743.086 485.989C716.704 522.482 670.389 531.508 633.029 505.59C625.019 500.043 616.631 488.268 610.915 484.655L610.897 484.657Z" fill="#FFE5B5"/>
<path d="M847.702 691.371C846.819 732.92 856.248 778.235 872.205 816.92C880.311 836.58 892.175 854.645 901.116 873.881C941.064 959.665 961.69 1082.26 975.171 1176.47C983.193 1232.46 988.228 1282.08 938.457 1320.92C885.287 1362.43 750.628 1379.43 686.297 1361.69C591.839 1335.65 593.478 1222.11 590.664 1141.98C588.557 1082.13 586.821 1004.59 593.675 945.772C597.424 913.467 609.947 882.67 612.912 850.268C616.793 807.889 609.682 765.572 608.533 723.439L668.095 722.413C728.63 715.578 788.749 706.159 847.702 691.371Z" fill="#D87737"/>
<path d="M216.684 261.664C332.755 245.533 356.797 441.918 358.109 522.266C358.835 566.376 354.415 648.097 313.68 673.752C285.374 691.591 210.851 700.973 178.784 690.596C108.414 667.83 76.8418 532.455 74.3765 467.389C72.6456 421.514 74.8251 334.029 111.216 301.555C130.858 284.017 190.44 265.297 216.682 261.646L216.684 261.664ZM184.647 483.643C184.847 484.945 186.652 485.131 186.666 485.258C192.591 526.346 197.362 590.807 184.685 630.154C182.759 636.161 174.021 644.248 181.078 650.489C191.929 660.097 207.964 627.807 211.107 619.844C235.67 557.715 205.897 389.534 164.224 336.382C158.889 329.582 145.241 312.34 136.089 321.504C129.289 328.328 147.824 351.316 151.949 359.979C170.258 398.477 178.28 441.888 184.609 483.629L184.647 483.643Z" fill="#FFE5B5"/>
<path d="M577.718 269.591C581.101 271.073 588.999 278.931 591.538 282.253C606.944 302.408 610.966 357.15 603.937 381.286C598.546 399.797 586.497 418.643 565.102 418.905C508.206 419.598 507.333 278.974 559.719 267.986C565.04 266.88 572.73 267.405 577.698 269.575L577.718 269.591Z" fill="#151711"/>
<path d="M742.911 249.18C772.177 239.64 787.504 265.375 792.164 290.107C797.856 320.315 803.244 374.777 771.671 393.015C731.356 416.325 711.845 350.614 710.978 321.286C710.407 301.58 721.949 255.996 742.893 249.182L742.911 249.18Z" fill="#151711"/>
<path d="M610.897 484.656C616.613 488.27 625.019 500.043 633.01 505.592C670.371 531.51 716.686 522.484 743.068 485.991C751.996 473.653 753.28 451.442 772.035 458.038C790.79 464.635 763.232 501.13 755.802 509.403C724.931 543.728 676.359 554.292 634.148 535.203C621.214 529.357 583.276 504.864 592.592 488.069C595.746 482.367 605.734 481.386 610.879 484.658L610.897 484.656Z" fill="#151711"/>
<path d="M186.666 485.258L184.647 483.643C178.318 441.902 170.296 398.491 151.987 359.993C147.86 351.312 129.307 328.325 136.127 321.517C145.261 312.356 158.927 329.596 164.262 336.396C205.936 389.548 235.708 557.729 211.145 619.858C208.002 627.821 191.947 660.095 181.116 650.503C174.06 644.262 182.798 636.174 184.723 630.168C197.38 590.804 192.611 526.362 186.704 485.272L186.666 485.258Z" fill="#151711"/>
<path d="M186.666 485.258C186.652 485.131 184.847 484.945 184.647 483.643L186.666 485.258Z" fill="#C36222"/>
<path d="M603.208 714.579L846.632 687.536L853.897 752.934C853.897 752.934 796.925 775.161 759 779.976C701.97 787.217 610.473 779.976 610.473 779.976L603.208 714.579Z" fill="#BA5A1B"/>
<path d="M972.884 460.442C958.85 511.415 969.925 569.052 949.55 618.063C934.283 654.792 909.725 672.766 872.789 686.101C879.381 713.322 881.16 743.082 888.218 770.03C897.898 807.004 923.314 841.605 938.096 877.331C966.5 945.953 977.314 1014.32 990.919 1086.46C1010.29 1189.15 1048.73 1298 934.159 1358.87C850.181 1403.49 673.628 1426.93 604.472 1346.07C558.313 1292.11 565.77 1233.92 562.367 1169.01C557.681 1079.33 550.34 993.38 568.932 904.476C574.84 876.216 586.509 849.321 587.462 819.993C588.058 801.518 585.003 782.29 583.608 763.945C582.932 755.046 584.765 731.817 580.174 724.751C577.665 720.873 557.115 719.644 550.906 717.888C514.553 707.655 508.663 677.653 482.81 657.152C456.958 636.668 403.302 620.836 378.638 649.617C350.765 682.119 344.976 703.672 297.536 715.489C200.187 739.728 131.32 732.814 84.0133 637.402C42.9155 554.504 20.7826 383.745 69.053 300.942C92.6857 260.396 142.291 250.361 184.347 240.908C228.719 230.94 249.965 221.72 293.054 245.732C315.618 258.305 326.097 278.474 356.257 269.202C376.849 262.868 392.616 223.362 407.569 205.995C486.96 113.795 670.484 98.3166 785.83 93.2081C1017.66 82.9387 1205.14 159.56 1324.85 364.92C1365.98 435.475 1433.7 617.83 1338.06 669.024C1243 719.895 1168.23 592.575 1109.63 540.843C1068.77 504.777 1022.97 481.065 972.884 460.442ZM1211.35 462.308C1266.25 509.871 1296.61 572.703 1327.16 637.187C1343.1 628.006 1352.73 603.581 1354.15 585.915C1363.9 464.781 1270.18 318.453 1182.09 241.29C1011.49 91.8258 790.355 112.585 580.286 147.195C537.214 154.297 474.331 176.087 444.948 209.401C425.934 230.933 420.726 263.014 397.029 281.959C381.051 294.731 357.298 302.243 337.059 299.343C379.802 394.067 395.923 506.405 378.815 609.157C426.797 588.986 484.851 603.023 525.116 634.227C552.321 655.296 562.594 682.715 601.469 689.816C661.535 700.779 790.895 679.788 850.24 661.076C946.471 630.745 925.842 560.267 937.964 479.677C947.985 413.113 966.866 394.52 1036.31 394.529C1099.94 394.54 1163.74 421.034 1211.35 462.289L1211.35 462.308ZM216.684 261.664C190.424 265.317 130.86 284.035 111.218 301.573C74.8271 334.047 72.6476 421.532 74.3785 467.407C76.8438 532.473 108.414 667.83 178.786 690.613C210.871 700.989 285.376 691.609 313.682 673.77C354.399 648.117 358.819 566.396 358.111 522.283C356.799 441.935 332.755 245.533 216.686 261.682L216.684 261.664ZM847.702 691.371C788.749 706.159 728.612 715.58 668.095 722.413L608.533 723.439C609.684 765.59 616.795 807.907 612.912 850.268C609.945 882.652 597.424 913.467 593.675 945.772C586.839 1004.59 588.578 1082.15 590.664 1141.98C593.478 1222.11 591.839 1335.65 686.297 1361.69C750.646 1379.43 885.287 1362.43 938.457 1320.92C988.228 1282.08 983.175 1232.46 975.171 1176.47C961.69 1082.26 941.064 959.665 901.116 873.881C892.157 854.647 880.311 836.58 872.205 816.92C856.246 778.216 846.835 732.9 847.702 691.371Z" fill="#151711"/>
</g>
</g>
<defs>
<linearGradient id="paint0_linear_1_1092" x1="512" y1="0" x2="512" y2="1024" gradientUnits="userSpaceOnUse">
<stop stop-color="#FF8819"/>
<stop offset="1" stop-color="#A55C17"/>
</linearGradient>
<clipPath id="clip0_1_1092">
<rect width="1024" height="1024" fill="white"/>
</clipPath>
<clipPath id="clip1_1_1092">
<rect width="1326.32" height="1301.41" fill="white" transform="translate(10 175.443) rotate(-6.3391)"/>
</clipPath>
</defs>
</svg>
